<svg width="17" height="18" viewBox="0 0 17 18" fill="none" xmlns="http://www.w3.org/2000/svg">
<path d="M8.49997 7.875C7.74875 7.875 7.02829 7.57868 6.4971 7.05124C5.9659 6.52379 5.66748 5.80842 5.66748 5.0625C5.66748 4.31658 5.9659 3.60121 6.4971 3.07376C7.02829 2.54632 7.74875 2.25 8.49997 2.25C9.2512 2.25 9.97165 2.54632 10.5029 3.07376C11.034 3.60121 11.3325 4.31658 11.3325 5.0625C11.3325 5.80842 11.034 6.52379 10.5029 7.05124C9.97165 7.57868 9.2512 7.875 8.49997 7.875ZM8.49997 3.375C7.55959 3.375 6.80048 4.12875 6.80048 5.0625C6.80048 5.99625 7.55959 6.75 8.49997 6.75C9.44036 6.75 10.1995 5.99625 10.1995 5.0625C10.1995 4.12875 9.44036 3.375 8.49997 3.375Z" fill="white"/>
<path d="M15.2979 12.375C14.9807 12.375 14.7314 12.1275 14.7314 11.8125C14.7314 11.4975 14.9807 11.25 15.2979 11.25C15.6151 11.25 15.8644 11.0025 15.8644 10.6875C15.8644 9.94158 15.566 9.22621 15.0348 8.69876C14.5036 8.17132 13.7831 7.875 13.0319 7.875H11.8989C11.5817 7.875 11.3324 7.6275 11.3324 7.3125C11.3324 6.9975 11.5817 6.75 11.8989 6.75C12.8393 6.75 13.5984 5.99625 13.5984 5.0625C13.5984 4.12875 12.8393 3.375 11.8989 3.375C11.5817 3.375 11.3324 3.1275 11.3324 2.8125C11.3324 2.4975 11.5817 2.25 11.8989 2.25C12.6501 2.25 13.3706 2.54632 13.9018 3.07376C14.433 3.60121 14.7314 4.31658 14.7314 5.0625C14.7314 5.76 14.4822 6.39 14.0516 6.885C15.7398 7.335 16.9974 8.865 16.9974 10.6875C16.9974 11.6213 16.2383 12.375 15.2979 12.375ZM1.70194 12.375C0.76155 12.375 0.00244141 11.6213 0.00244141 10.6875C0.00244141 8.865 1.24874 7.335 2.94824 6.885C2.52903 6.39 2.26844 5.76 2.26844 5.0625C2.26844 4.31658 2.56686 3.60121 3.09805 3.07376C3.62925 2.54632 4.34971 2.25 5.10093 2.25C5.41817 2.25 5.66743 2.4975 5.66743 2.8125C5.66743 3.1275 5.41817 3.375 5.10093 3.375C4.16054 3.375 3.40143 4.12875 3.40143 5.0625C3.40143 5.99625 4.16054 6.75 5.10093 6.75C5.41817 6.75 5.66743 6.9975 5.66743 7.3125C5.66743 7.6275 5.41817 7.875 5.10093 7.875H3.96793C3.21671 7.875 2.49625 8.17132 1.96506 8.69876C1.43386 9.22621 1.13544 9.94158 1.13544 10.6875C1.13544 11.0025 1.3847 11.25 1.70194 11.25C2.01918 11.25 2.26844 11.4975 2.26844 11.8125C2.26844 12.1275 2.01918 12.375 1.70194 12.375ZM11.8989 15.75H5.10093C4.16054 15.75 3.40143 14.9963 3.40143 14.0625V12.9375C3.40143 10.7662 5.18024 9 7.36693 9H9.63292C11.8196 9 13.5984 10.7662 13.5984 12.9375V14.0625C13.5984 14.9963 12.8393 15.75 11.8989 15.75ZM7.36693 10.125C6.6157 10.125 5.89525 10.4213 5.36405 10.9488C4.83285 11.4762 4.53443 12.1916 4.53443 12.9375V14.0625C4.53443 14.3775 4.78369 14.625 5.10093 14.625H11.8989C12.2162 14.625 12.4654 14.3775 12.4654 14.0625V12.9375C12.4654 12.1916 12.167 11.4762 11.6358 10.9488C11.1046 10.4213 10.3841 10.125 9.63292 10.125H7.36693Z" fill="white"/>
</svg>
