<svg width="18" height="18" viewBox="0 0 18 18" fill="none" xmlns="http://www.w3.org/2000/svg">
<path d="M4.5 14.25H6.75V10.5C6.75 10.2875 6.822 10.1095 6.966 9.966C7.11 9.8225 7.288 9.7505 7.5 9.75H10.5C10.7125 9.75 10.8908 9.822 11.0347 9.966C11.1788 10.11 11.2505 10.288 11.25 10.5V14.25H13.5V7.5L9 4.125L4.5 7.5V14.25ZM3 14.25V7.5C3 7.2625 3.05325 7.0375 3.15975 6.825C3.26625 6.6125 3.413 6.4375 3.6 6.3L8.1 2.925C8.3625 2.725 8.6625 2.625 9 2.625C9.3375 2.625 9.6375 2.725 9.9 2.925L14.4 6.3C14.5875 6.4375 14.7345 6.6125 14.841 6.825C14.9475 7.0375 15.0005 7.2625 15 7.5V14.25C15 14.6625 14.853 15.0157 14.559 15.3097C14.265 15.6038 13.912 15.7505 13.5 15.75H10.5C10.2875 15.75 10.1095 15.678 9.966 15.534C9.8225 15.39 9.7505 15.212 9.75 15V11.25H8.25V15C8.25 15.2125 8.178 15.3907 8.034 15.5347C7.89 15.6787 7.712 15.7505 7.5 15.75H4.5C4.0875 15.75 3.7345 15.6033 3.441 15.3097C3.1475 15.0162 3.0005 14.663 3 14.25Z" fill="#6BB1FF"/>
</svg>
