<svg width="25" height="25" viewBox="0 0 25 25" fill="none" xmlns="http://www.w3.org/2000/svg">
<path d="M25 0H0V25H25V0Z" fill="#0063AC"/>
<path d="M21.4456 13.0164C21.0957 13.5114 20.6729 13.976 20.3489 14.4822C20.3851 14.0821 20.4328 13.5892 20.2757 13.2088C20.0067 12.3931 19.7698 11.5643 19.695 10.6679L19.7024 10.325C19.906 11.2406 20.8061 11.871 20.7486 12.8972C20.7691 13.1467 20.6919 13.356 20.6462 13.5759L20.6622 13.5919L20.7029 13.5463C20.8358 13.0435 20.9024 12.5131 21.1096 12.0432C21.4049 11.3681 21.7717 10.6856 21.622 9.86947C22.0711 10.832 21.9366 12.1168 21.4456 13.0164Z" fill="white"/>
<path d="M20.8917 7.8303C21.4826 8.63001 21.613 9.9021 21.1816 10.8181C21.0237 11.2074 20.9089 11.6211 20.8464 12.0507C20.8151 11.9776 20.809 11.8776 20.783 11.7941C20.5486 10.8982 19.6998 10.2589 19.3495 9.41277C19.2401 9.13564 19.1463 8.84988 19.0936 8.54938C19.4654 9.23848 20.385 9.5957 20.6362 10.3551C20.7393 10.5488 20.7337 10.7876 20.7953 10.9944C20.8089 10.9944 20.8225 10.9845 20.8225 10.9714C20.7127 10.1882 20.7452 9.36867 20.8529 8.59664C20.8464 8.17689 20.8061 7.77062 20.5725 7.44707C20.7223 7.5338 20.7905 7.70073 20.8917 7.8303Z" fill="white"/>
<path d="M20.4763 7.67726C20.6318 8.37698 20.4069 9.05955 20.5495 9.7659L20.5426 9.77169C20.1622 9.02344 19.3533 8.67021 18.7969 8.07038C18.4728 7.71388 18.3339 7.28014 18.2549 6.82092C18.574 7.59021 19.4327 7.76041 19.9262 8.40624C20.0923 8.55591 20.1466 8.76315 20.2527 8.93377L20.27 8.91566C19.9854 8.31004 19.8892 7.62674 19.6951 6.98122C19.5931 6.70125 19.3965 6.42496 19.1325 6.24813C19.7806 6.38138 20.3426 7.05732 20.4763 7.67726Z" fill="white"/>
<path d="M18.7438 6.07141C19.2328 6.50769 19.4532 7.07458 19.5975 7.66094L19.6765 7.84682C18.9671 7.33824 18.3243 6.65125 17.8708 5.9288L17.3172 5.36843C17.8041 5.57473 18.3281 5.69808 18.7438 6.07141Z" fill="white"/>
<path d="M9.47578 5.52862C10.3986 5.07351 11.4081 4.82964 12.5066 4.80995C15.0184 4.81322 17.4176 6.2876 18.5106 8.61264C19.2032 9.94841 19.4001 11.7879 18.9511 13.296C18.4942 15.0779 16.9949 16.8804 15.2487 17.6135C13.2839 18.576 10.4908 18.3354 8.73884 17.0794C6.30347 15.4122 5.30745 12.5362 6.04354 9.69811C6.49055 8.01322 7.83283 6.31191 9.47578 5.52862Z" fill="white"/>
<path d="M7.54908 5.46284C7.05933 5.89206 6.7196 6.43517 6.35692 6.94133C6.03035 7.34382 5.61461 7.61021 5.2433 7.95681C5.44396 7.54401 5.45143 7.05069 5.73431 6.67157C6.13773 5.96774 6.88415 5.72187 7.54908 5.46284Z" fill="white"/>
<path d="M4.87148 6.95701C5.10751 6.66104 5.41102 6.45464 5.75033 6.36865C5.09277 6.8205 5.13393 7.63379 4.92412 8.31046C4.85706 8.55959 4.74115 8.79062 4.6844 9.04555L4.70209 9.05954C4.81231 8.76884 5.00476 8.49707 5.24332 8.26025C5.7138 7.82735 6.40715 7.55758 6.63739 6.91744C6.6275 7.80714 5.88361 8.50528 5.17499 9.00608C4.87969 9.26268 4.59808 9.55623 4.43763 9.88473C4.42079 9.66191 4.47174 9.43572 4.4549 9.19606C4.37805 8.41982 4.32172 7.53338 4.87148 6.95701Z" fill="white"/>
<path d="M3.53665 9.61255C3.51528 8.82599 3.84175 8.18384 4.30318 7.59758C4.31423 7.59063 4.32539 7.57748 4.34139 7.5799C3.83554 8.34951 4.2538 9.31899 4.23159 10.1952L4.16495 11.0911C4.17316 11.0973 4.17316 11.124 4.19779 11.1142C4.22738 11.0155 4.23485 10.9082 4.2537 10.8046C4.37382 10.0814 5.00053 9.56876 5.55029 9.06923C5.6683 8.9405 5.76863 8.80567 5.83032 8.65443C5.78716 9.01292 5.67325 9.37594 5.52355 9.70938C5.09749 10.5419 4.30707 11.2241 4.16484 12.177C4.09504 11.2649 3.47086 10.582 3.53665 9.61255Z" fill="white"/>
<path d="M3.15096 10.7313C3.2077 10.4854 3.25297 10.2313 3.35909 10.0056C3.15475 11.0454 3.85505 11.794 4.08456 12.6969C4.18078 13.0324 4.20541 13.3963 4.34154 13.7124C4.35512 13.7193 4.36575 13.7054 4.3748 13.6955C4.03181 12.7368 4.52451 11.8471 5.02047 11.0975C5.14059 10.8939 5.21123 10.6674 5.2705 10.4355C5.32314 10.868 5.21502 11.3684 5.15038 11.8174C5.0311 12.3901 4.85097 12.9324 4.69474 13.49C4.59073 13.8353 4.61789 14.2284 4.67168 14.5914L4.62147 14.5515C4.25626 13.8822 3.53827 13.3597 3.32604 12.627C3.14843 12.0437 3.03168 11.3686 3.15096 10.7313Z" fill="white"/>
<path d="M3.11797 12.7632C3.19861 13.8662 4.38455 14.4489 4.93483 15.3613C5.06475 15.5483 5.17792 15.7543 5.35057 15.9101C5.32341 15.7942 5.21445 15.6939 5.17413 15.5743C4.98042 15.1915 4.91136 14.7355 4.95779 14.2722C5.01211 13.7093 5.2473 13.186 5.15802 12.5931C5.6404 13.6362 5.49396 14.9358 5.76379 16.064C5.83411 16.3107 5.97718 16.5303 6.07056 16.7671C5.07696 16.0903 3.72447 15.4473 3.28399 14.2089C3.09828 13.7819 3.07849 13.2528 3.11797 12.7632Z" fill="white"/>
<path d="M3.71103 15.2942C4.265 16.5465 5.6496 16.6502 6.58067 17.4128C6.74964 17.5629 6.93187 17.6924 7.12348 17.7833L7.13337 17.7726C6.91871 17.5794 6.67363 17.3598 6.52308 17.1098C5.98027 16.3541 6.17104 15.2942 5.76393 14.4818C6.13408 14.9241 6.47044 15.3834 6.69416 15.8871C7.02725 16.7069 7.15306 17.6324 7.92421 18.2524C7.08895 17.9794 6.1144 18.0564 5.38072 17.5432C4.5783 17.0501 3.86158 16.2139 3.71103 15.2942Z" fill="white"/>
<path d="M5.13396 17.6294C6.01933 18.6392 7.47058 18.3021 8.6521 18.5653C8.81781 18.5895 8.97246 18.6552 9.14932 18.6286C9.00867 18.5389 8.81296 18.5493 8.65915 18.4691C7.73303 18.1418 7.59607 17.1394 7.09274 16.4643C7.73672 16.8907 8.275 17.4659 8.86929 18.0226C9.29618 18.3951 9.8073 18.5678 10.3473 18.6791C10.2185 18.7252 10.0474 18.712 9.90805 18.7486C8.93877 18.9891 7.85884 19.3784 6.82912 19.0277C6.16041 18.8181 5.47032 18.2894 5.13396 17.6294Z" fill="white"/>
<path d="M17.1746 19.9804C16.1753 20.3541 15.1316 19.964 14.3519 19.3719C14.0365 19.1709 13.7569 18.8814 13.3464 18.9093C13.1995 18.9052 13.0552 18.9122 12.9302 18.9492C13.6894 19.302 14.3938 19.788 15.039 20.4109C14.9292 20.5338 14.7898 20.6501 14.6566 20.757C14.0364 20.0889 13.3464 19.4438 12.5765 19.0685C12.4276 19.0878 12.2829 19.1783 12.148 19.2502C11.5205 19.6474 10.9003 20.1581 10.4356 20.7805L10.0343 20.4508C10.6741 19.8052 11.3815 19.302 12.153 18.9414C11.3947 18.7022 10.8987 19.3374 10.3225 19.6614C9.64895 20.1309 8.68293 20.3509 7.86861 20.0276C7.43193 19.8616 7.01082 19.6177 6.6933 19.221C7.33402 19.6614 8.28562 19.7082 9.01224 19.422C9.98889 18.9986 10.9998 18.4628 12.1759 18.7181C12.3606 18.7222 12.5403 18.9051 12.7138 18.7489C13.5864 18.522 14.5751 18.679 15.3284 19.0783L16.104 19.3878C16.8245 19.6542 17.7572 19.5815 18.3737 19.1407C18.0574 19.5367 17.624 19.8208 17.1746 19.9804Z" fill="white"/>
<path d="M18.2475 18.9488C17.1227 19.3719 15.9951 18.853 14.9193 18.6787L14.7125 18.6516V18.6462C15.2257 18.5295 15.7249 18.3757 16.1354 18.0052C16.7379 17.4259 17.2737 16.8306 17.9445 16.3734C17.4473 17.0103 17.3955 17.9155 16.575 18.3251C16.3707 18.4583 16.1157 18.4813 15.9052 18.5828C16.205 18.5894 16.4784 18.4813 16.775 18.4517C17.875 18.2798 19.1334 18.4558 19.9033 17.5193C19.6161 18.1714 18.9013 18.7186 18.2475 18.9488Z" fill="white"/>
<path d="M18.8692 17.8063C18.2975 17.9596 17.6848 18.0094 17.1272 18.1989C18.0701 17.3901 18.0179 16.1378 18.6472 15.1847C18.8462 14.9142 19.0128 14.6305 19.2467 14.3756C18.8647 15.1449 19.0296 16.1402 18.5904 16.8868C18.4206 17.1812 18.1775 17.4689 17.9098 17.7033C17.9982 17.6984 18.0751 17.6236 18.1504 17.573C18.8668 16.8602 19.8003 16.6599 20.5726 16.0801C20.8826 15.8334 21.1669 15.5111 21.303 15.162C21.1557 16.3434 19.98 17.4526 18.8692 17.8063Z" fill="white"/>
<path d="M20.2859 15.7908C19.843 16.0802 19.3932 16.3492 18.9671 16.6789V16.6411C19.621 15.5549 19.3002 14.0649 19.7024 12.8734L19.8529 12.4737C19.7699 13.2159 20.0922 13.8457 20.0709 14.5915C20.0462 15.0417 19.8998 15.4413 19.6629 15.8003H19.7024C20.0223 15.3817 20.2732 14.9356 20.6466 14.5348C21.2261 13.976 21.8154 13.4033 21.8923 12.6271C22.0885 13.9221 21.3622 15.057 20.2859 15.7908Z" fill="white"/>
<path d="M15.2721 15.7049L15.3185 15.6404C15.5188 15.4846 15.7347 15.3369 15.9115 15.1441H15.9358C15.8942 15.1314 15.8441 15.1713 15.7988 15.1515C15.7038 15.1083 15.6886 15.0244 15.6886 14.9282L15.2789 14.5048L15.2567 14.4419C15.2255 14.5221 15.1646 14.5717 15.1062 14.6306C15.109 14.6849 15.0893 14.7654 15.1534 14.8012C15.2863 14.8448 15.4594 14.9319 15.4891 15.0878C15.4352 15.2349 15.1555 15.3678 15.3283 15.5278C15.3844 15.607 15.2496 15.637 15.2721 15.7049Z" fill="#0063AC"/>
<path d="M12.8898 10.2984C12.9671 10.3411 13.0095 10.2622 13.0749 10.2453C13.167 10.2552 13.2393 10.3357 13.2962 10.395C13.3553 10.4213 13.4129 10.3851 13.466 10.3654C13.5033 10.0887 13.8497 10.1286 13.9525 9.86957L13.8891 9.89304C13.8628 9.85568 13.7965 9.8721 13.8002 9.81284C13.8561 9.7578 13.9297 9.67475 13.9993 9.65254C13.7007 9.46509 13.3907 9.30552 13.0501 9.22006C12.9169 9.1888 12.7762 9.18554 12.6496 9.13943C12.7137 9.32942 12.6578 9.60855 12.6972 9.82937L12.9354 9.90831C13.0074 9.79232 13.1599 9.77022 13.2262 9.65917C13.2689 9.62255 13.3191 9.65917 13.3536 9.69907C13.3647 9.78874 13.3401 9.87873 13.3129 9.96504C13.223 10.1454 13.0095 10.1672 12.8898 10.2984Z" fill="#0063AC"/>
<path d="M16.4392 12.5362C16.2986 12.9831 16.1353 13.4189 15.8548 13.8087C15.7459 13.9484 15.6377 14.1425 15.4967 14.2148L15.7989 14.4817C15.8149 14.4652 15.8054 14.4381 15.81 14.4155C15.81 14.3756 15.8285 14.3287 15.8786 14.3344C16.0246 14.3316 16.0275 14.4882 16.1114 14.5684C16.0937 14.695 16.2048 14.7949 16.1677 14.9117C17.0078 14.0253 17.4282 12.9399 17.505 11.7373L17.5507 11.6842C17.2509 11.7134 16.9346 11.6929 16.6255 11.6974L16.5514 11.6748C16.5724 11.8775 16.5182 12.074 16.5057 12.2738L16.6139 12.393C16.646 12.4399 16.6344 12.5102 16.5917 12.5459C16.5441 12.5773 16.4849 12.574 16.4392 12.5362Z" fill="#0063AC"/>
<path d="M15.6377 9.58834C15.5259 9.37572 15.3461 9.18585 15.192 8.99587L15.176 9.03702C14.8688 9.35562 14.532 9.68538 14.2395 10.0127C14.2585 10.0518 14.2913 10.0892 14.33 10.1085C14.3419 10.0291 14.3863 9.9584 14.3937 9.87536C14.4722 9.766 14.5935 9.83547 14.6959 9.85894C14.8555 9.82189 15.0055 9.89599 15.1688 9.89346C15.2894 9.95188 15.2996 10.1057 15.4098 10.1652C15.4394 10.2075 15.4156 10.259 15.3757 10.2923C15.4098 10.5418 15.5287 10.2252 15.6557 10.2857C15.7084 10.3055 15.7754 10.2985 15.8145 10.3548C15.8346 10.4584 15.9617 10.4395 15.9683 10.5381C15.958 10.5875 15.9049 10.6015 15.8696 10.629C15.9017 10.728 15.7692 10.7914 15.8145 10.8979C16.0078 10.9345 16.0147 10.7109 16.104 10.6117C16.0546 10.4394 16.0177 10.2618 15.9189 10.1085C15.8095 10.0859 15.7433 9.95514 15.6323 9.93251C15.419 9.8481 15.6657 9.7158 15.6377 9.58834Z" fill="#0063AC"/>
<path d="M12.6662 16.5441C12.9134 16.4606 13.2 16.4734 13.4665 16.4302C13.4139 16.4101 13.3596 16.3981 13.3193 16.3439C13.1631 16.3336 13.089 16.1716 13.0406 16.0467C13.0167 15.9582 13.0776 15.8847 13.1137 15.8074C13.0479 15.6713 12.8406 15.7696 12.7198 15.7211C12.6869 15.694 12.663 15.6536 12.6173 15.6467L12.6663 15.7211C12.6662 15.9943 12.6999 16.2739 12.6662 16.5441Z" fill="#0063AC"/>
<path d="M12.8809 13.9452C12.9672 13.9616 12.9059 14.0558 12.9697 14.0895C13.1058 14.0451 13.2107 14.205 13.3192 14.1051C13.3134 13.9484 13.4907 13.9616 13.5865 13.9217C13.7375 13.832 13.9065 13.712 13.89 13.5122L13.8646 13.483C13.7617 13.483 13.7091 13.5624 13.6342 13.6253C13.5388 13.6796 13.4919 13.5254 13.4163 13.5624C13.4196 13.5788 13.4364 13.5863 13.4508 13.5919C13.4689 13.6162 13.4763 13.6655 13.4508 13.6898C13.3365 13.7927 13.2834 13.6385 13.1762 13.6483V13.6898C13.1803 13.712 13.1699 13.749 13.1375 13.7351C13.0693 13.6253 12.9332 13.6656 12.8661 13.5698C12.8242 13.5464 12.7831 13.5761 12.7535 13.6024C12.7304 13.6529 12.6236 13.5962 12.6499 13.6834C12.5677 13.7121 12.5582 13.8018 12.4977 13.8557C12.3929 13.838 12.348 13.9556 12.2501 13.9532C12.26 13.9725 12.2501 14.0062 12.2793 14.0086C12.3406 14.0354 12.4002 14.0412 12.4743 14.0321C12.5732 13.8729 12.7406 14.006 12.8809 13.9452Z" fill="#0063AC"/>
<path d="M13.8653 12.6439C13.8703 12.6933 13.8776 12.7599 13.9196 12.8022C14.0495 12.7833 13.9941 12.9625 14.1129 12.947C14.1804 12.9269 14.1174 12.8701 14.136 12.8269C14.1174 12.7266 14.02 12.7162 13.9526 12.6563C13.9452 12.6369 13.96 12.62 13.9682 12.604C13.9196 12.5769 13.8966 12.6073 13.8653 12.6439Z" fill="#0063AC"/>
<path d="M13.714 8.04648C13.376 7.92723 13.0075 7.87629 12.6399 7.82114L12.6736 7.89387L12.6666 8.79589L12.7542 8.77904C13.3061 8.85514 13.8119 9.0327 14.2495 9.38835L14.2733 9.45909C14.4209 9.24858 14.6483 9.06849 14.8244 8.86946L14.9922 8.77241L14.912 8.73957C14.5446 8.43339 14.147 8.2011 13.714 8.04648Z" fill="#0063AC"/>
<path d="M7.51696 11.7641L7.58971 12.3775C7.61845 12.6135 7.72299 12.8401 7.71552 13.0732C7.75173 13.0234 7.7291 12.9226 7.81995 12.9129C7.78216 12.8401 7.88943 12.7772 7.82901 12.7134C7.85859 12.5538 7.87754 12.3899 8.01903 12.2743C8.1901 12.2669 8.20242 12.0428 8.37265 12.0329C8.45898 12.0297 8.51246 12.1464 8.55068 12.1863C8.44256 12.0576 8.44824 11.8442 8.4754 11.6971L8.40224 11.7312C8.0922 11.7242 7.76973 11.7493 7.47612 11.7073L7.51696 11.7641Z" fill="#0063AC"/>
<path d="M13.4907 13.3227C13.5697 13.2397 13.7379 13.2434 13.7453 13.1237C13.6289 13.1052 13.5697 13.1694 13.4907 13.233C13.4795 13.2582 13.4433 13.305 13.4907 13.3227Z" fill="#0063AC"/>
<path d="M15.6097 11.6514L15.7117 11.7538C15.8146 11.8237 15.7458 11.9729 15.8548 12.0334C15.984 12.0996 16.0317 12.2501 16.0892 12.3631C16.1086 12.3335 16.1086 12.2969 16.1188 12.2665C16.1649 12.0836 16.1579 11.8776 16.2146 11.6975C16.0144 11.7073 15.7841 11.7271 15.6097 11.6514Z" fill="#0063AC"/>
<path d="M14.2659 13.9851C14.379 14.0146 14.4567 14.1557 14.5986 14.1121C14.7191 14.0451 14.9189 14.152 14.9987 14.0254C14.986 13.902 15.0925 13.812 15.1463 13.7059L15.1854 13.6956C15.2524 13.7651 15.2488 13.8695 15.2792 13.9452C15.3713 13.8457 15.4449 13.7351 15.5288 13.6327C15.7484 13.3124 15.9359 12.9695 16.0149 12.604C15.9256 12.6069 15.8351 12.6221 15.7529 12.6493C15.6559 12.6439 15.5387 12.6998 15.4552 12.6329C15.4265 12.607 15.4054 12.6469 15.4099 12.6736C15.3754 12.7234 15.3417 12.7858 15.2652 12.7633C15.2056 12.7366 15.2056 12.6736 15.1854 12.6268C15.1886 12.6638 15.1759 12.6967 15.1685 12.7299C15.0995 12.8023 15.0747 12.8734 15.0259 12.9527C14.956 13.0296 14.8429 13.0025 14.7689 13.0658C14.7553 13.2261 14.5789 13.192 14.479 13.2435C14.4724 13.2628 14.4954 13.2657 14.5053 13.2829C14.553 13.2961 14.6159 13.2961 14.6492 13.2492C14.789 13.2866 14.759 13.1103 14.8404 13.0495C14.9099 13.0396 14.9765 12.98 15.0481 13.0273C15.123 13.1161 15.139 13.246 15.1287 13.3628C15.0481 13.4422 15.0897 13.5725 15.0325 13.6658C15.0453 13.7765 14.912 13.8258 14.9293 13.9359C14.887 13.9853 14.8122 13.9931 14.7455 13.9931C14.484 13.8932 14.206 13.829 13.9128 13.8019C13.8861 13.8122 13.8696 13.8356 13.8733 13.866C13.9941 13.9292 14.1397 13.9324 14.2659 13.9851Z" fill="#0063AC"/>
<path d="M12.2792 16.9034L12.3137 16.8529L12.2101 16.8801C10.911 16.7908 9.76201 16.3316 8.81284 15.4139L8.8021 15.4542L8.11611 16.1437C9.15488 17.0437 10.3278 17.6235 11.6668 17.8068C11.8806 17.8426 12.125 17.8228 12.3297 17.8862L12.2792 17.8068V16.9034Z" fill="#0063AC"/>
<path d="M10.9369 13.3124C11.2946 13.6068 11.6939 13.7885 12.1373 13.8658C12.1603 13.7761 12.1241 13.6631 12.1705 13.5863C12.2038 13.5123 12.2927 13.5155 12.3606 13.5283C12.4 13.5254 12.4247 13.4761 12.4 13.4415C12.3038 13.423 12.3482 13.3162 12.3133 13.2557C12.3182 13.2228 12.3741 13.2294 12.3606 13.1854C12.2927 13.1323 12.3931 13.0732 12.3371 13.0164C12.3531 13.005 12.3655 12.9852 12.3824 12.9741C12.1804 13.0588 11.9658 12.9355 11.7878 12.8565C11.6997 12.8052 11.5739 12.7571 11.555 12.6493C11.4118 12.8824 11.1367 13.0958 10.9369 13.3124Z" fill="#0063AC"/>
<path d="M10.5944 12.2739C10.5618 12.2566 10.5573 12.2607 10.531 12.2894C10.515 12.2894 10.4948 12.2935 10.4816 12.2837C10.4816 12.0937 10.2682 12.2071 10.1888 12.1081C10.2818 12.2795 10.3319 12.4769 10.4274 12.6492C10.4882 12.8025 10.6207 12.9231 10.6815 13.0731C10.7445 12.953 10.8715 12.8563 10.962 12.7462C10.9685 12.6969 10.9579 12.6529 10.9295 12.6168C10.901 12.5461 10.9282 12.447 10.8731 12.3873C10.7884 12.4173 10.9048 12.5033 10.8673 12.5543C10.8311 12.5773 10.7908 12.546 10.7884 12.5131C10.7111 12.5008 10.651 12.4329 10.6272 12.363C10.6914 12.3232 10.6112 12.3064 10.5944 12.2739Z" fill="#0063AC"/>
<path d="M11.2342 12.3705C11.2133 12.4531 11.1577 12.5259 11.0968 12.5864L11.1071 12.5929C11.1874 12.5357 11.2453 12.4337 11.3477 12.4272L11.2342 12.3705Z" fill="#0063AC"/>
<path d="M12.2007 15.6079C11.3906 15.5675 10.6815 15.2716 10.0515 14.8008C10.0713 14.8806 10.1773 14.9323 10.1478 15.0314C10.091 15.1222 9.97458 15.1239 9.88215 15.1222C9.69096 15.0914 9.55074 15.2353 9.37261 15.2542C9.20848 15.3047 9.15174 15.1045 9.00245 15.1222C9.92773 15.9301 10.9867 16.4362 12.2274 16.5032L12.3208 16.5666L12.2796 16.4536V15.5738L12.2007 15.6079Z" fill="#0063AC"/>
<path d="M8.60271 15.1745C8.4888 15.0943 8.38805 14.9653 8.29309 14.8543C8.18287 14.8247 8.06854 14.7482 8.01264 14.6421C7.97979 14.6043 8.01021 14.5392 7.97358 14.5122L7.93168 14.562C7.81535 14.6183 7.77376 14.4983 7.69354 14.4489C7.58911 14.393 7.64048 14.1957 7.49941 14.2319C7.44677 14.2295 7.42951 14.1694 7.39624 14.1365C7.26749 14.1488 7.23338 14.0058 7.16305 13.9363C7.14947 13.9663 7.16305 14.0058 7.12357 14.0256C6.98956 14.056 6.94429 13.8928 6.85301 13.8254C6.82911 13.8357 6.81353 13.8636 6.779 13.8562C6.70047 13.7864 6.64656 13.6856 6.64246 13.5767C6.53308 13.4516 6.58329 13.2564 6.60382 13.1059C6.62393 13.066 6.68109 13.0434 6.66962 12.9937C6.70047 12.9234 6.77405 12.9164 6.84396 12.9131C6.8707 12.9271 6.89744 12.953 6.90976 12.9772C6.95334 12.95 7.05083 12.9796 7.01335 12.883C7.06925 12.8336 7.154 12.8159 7.23085 12.8028C7.28391 12.8702 7.30981 12.9466 7.38098 13.0092L7.33455 12.9364C7.25433 12.6099 7.19148 12.2773 7.17295 11.9238C7.17663 11.904 7.13179 11.8942 7.15695 11.8749L7.16316 11.8843C7.16726 11.8108 7.16147 11.7474 7.17305 11.6977L7.08336 11.7314L6.15724 11.7249C6.21072 12.7897 6.49318 13.7592 6.97398 14.6493C7.21001 15.0884 7.55668 15.4844 7.85893 15.8947L8.52186 15.2081L8.60271 15.1745Z" fill="#0063AC"/>
<path d="M9.66824 7.3977C9.46138 7.54074 9.27177 7.72746 9.0588 7.85408C9.30599 8.00986 9.50865 8.27099 9.73162 8.47613L9.7551 8.5398C10.3222 7.99712 11.0111 7.68094 11.7549 7.52759C11.9301 7.5099 12.1078 7.45075 12.2792 7.48812C12.2673 7.17067 12.2393 6.84102 12.2723 6.52726C11.307 6.58484 10.443 6.87765 9.66824 7.3977Z" fill="#0063AC"/>
<path d="M8.87539 10.8747C8.83918 11.0347 8.85939 11.2205 8.79517 11.371C8.91319 11.3167 9.08184 11.3377 9.21175 11.3542C9.13606 11.3143 9.19985 11.2181 9.15501 11.1638C9.14511 11.082 9.13111 10.9783 9.21175 10.9241C9.2027 10.7876 9.34787 10.7177 9.36272 10.5943C9.39851 10.455 9.55801 10.5491 9.63539 10.4751C9.6856 10.4479 9.64191 10.4019 9.64191 10.3653C9.70855 10.2741 9.81215 10.2786 9.8911 10.228C9.94869 10.1417 10.0219 10.0483 10.1148 9.99651C10.3151 10.0027 10.3188 9.72232 10.5079 9.71527C10.2484 9.51877 10.0016 9.25605 9.77182 9.02871C9.31292 9.57886 8.99878 10.1845 8.87539 10.8747Z" fill="#0063AC"/>
<path d="M9.00247 12.2262C9.01194 12.1662 8.92309 12.1505 8.9313 12.0905C8.99541 11.9667 8.93457 11.7674 9.09869 11.7139C8.98268 11.7337 8.87908 11.7571 8.78002 11.6843L8.82729 11.7641C8.83508 11.9837 8.92309 12.1933 8.8754 12.417C8.91319 12.3536 8.92309 12.2669 9.00247 12.2262Z" fill="#0063AC"/>
<path d="M9.9207 14.6306L9.90838 14.608L9.9207 14.6491V14.6306Z" fill="#0063AC"/>
<path d="M8.8124 8.1329L8.45214 8.59096C7.8628 9.3993 7.58234 10.335 7.49928 11.3547L8.41266 11.3374L8.49899 11.3715C8.46235 11.3469 8.4714 11.3079 8.45909 11.2749C8.5331 10.3252 8.86535 9.4794 9.52091 8.77273C9.26845 8.55402 9.03158 8.32046 8.81724 8.07048L8.8124 8.1329Z" fill="#0063AC"/>
<path d="M11.6264 14.3617C11.6996 14.284 11.786 14.2322 11.8765 14.1988C11.5808 14.2593 11.3197 14.0459 11.0675 13.9292C10.924 13.8222 10.7373 13.7355 10.6509 13.5761C10.4536 13.8157 10.2212 14.0653 9.98886 14.2553C10.0905 14.2618 10.1485 14.3758 10.2348 14.4259C10.7349 14.8415 11.3575 15.0421 11.9361 15.1848L11.7781 15.1109C11.6573 14.9752 11.487 14.8149 11.4808 14.6257C11.6005 14.5845 11.5871 14.4522 11.6264 14.3617Z" fill="#0063AC"/>
<path d="M9.34784 11.7139L9.32195 11.8899C9.2812 11.9939 9.15171 11.9162 9.09244 11.9874C9.04928 12.0536 9.09413 12.1235 9.13108 12.1765C9.03812 12.3899 9.34247 12.4573 9.33795 12.6497C9.43175 12.7698 9.32521 12.9424 9.45881 13.0494C9.48797 13.2661 9.4288 13.5596 9.61882 13.729L9.65251 13.9362C9.69115 14.0789 9.48144 14.0415 9.5086 14.1689C9.55019 14.1488 9.55798 14.2026 9.56208 14.2154V14.2088C9.81875 13.9129 10.1148 13.5995 10.4175 13.3368L10.2917 13.2098C10.0548 12.8562 9.86844 12.4795 9.77843 12.0668L9.6822 12.0175C9.6781 12.1236 9.62788 12.207 9.63535 12.3134L9.60209 12.3533C9.5326 12.3509 9.48818 12.2938 9.42891 12.2567C9.41448 12.2201 9.37795 12.1609 9.43543 12.1309C9.4687 12.1281 9.49134 12.1375 9.51608 12.1531C9.54524 12.1169 9.5325 12.0643 9.55019 12.0175C9.55798 11.9373 9.48807 11.8641 9.53787 11.7938C9.60198 11.7876 9.64894 11.8641 9.67483 11.9069C9.73895 11.9266 9.78916 11.8747 9.8418 11.8505C9.8418 11.7938 9.92076 11.7169 9.83443 11.6845C9.88212 11.5541 9.84843 11.4176 9.82706 11.2914C9.79211 11.1812 9.66831 11.201 9.57872 11.2112C9.30857 11.2971 9.6223 11.5011 9.55566 11.6672C9.51766 11.7641 9.41817 11.6745 9.34784 11.7139Z" fill="#0063AC"/>
<path d="M17.8864 11.6975L17.8309 11.6572L17.8634 11.7472C17.8112 12.856 17.441 13.835 16.8065 14.7062C16.6848 14.8517 16.5697 15.031 16.4146 15.1345C16.6687 15.334 16.9488 15.6341 17.1573 15.8648L17.1832 15.8146C18.2034 14.6518 18.7829 13.3049 18.8463 11.7471L18.887 11.6673L18.8372 11.6915L17.8864 11.6975Z" fill="#0063AC"/>
<path d="M8.85929 7.61979L8.87529 7.57369C9.84826 6.68809 10.9808 6.2013 12.2791 6.1413L12.2499 6.06194L12.2396 5.26149L12.2672 5.16897C10.9273 5.22202 9.73814 5.6784 8.68368 6.4378C8.47934 6.578 8.29963 6.79061 8.09318 6.91144H8.12161C8.38596 7.10331 8.63599 7.38044 8.85929 7.61979Z" fill="#0063AC"/>
<path d="M12.2343 7.84672C11.388 7.90755 10.6535 8.25952 10.0112 8.79031C10.2654 8.96503 10.4908 9.24869 10.721 9.4514C10.7374 9.42919 10.7547 9.40572 10.7712 9.37867C11.0879 9.15333 11.4156 8.94693 11.7882 8.85325C11.953 8.83599 12.1176 8.75705 12.2904 8.79568C12.2546 8.48234 12.2546 8.137 12.2904 7.81388L12.2343 7.84672Z" fill="#0063AC"/>
<path d="M12.2792 9.16564C11.7438 9.23595 11.2503 9.4193 10.858 9.83536H10.93C11.011 9.91557 11.1397 9.89873 11.201 10.006C11.231 10.066 11.1438 10.059 11.1471 10.1084C11.1643 10.1228 11.1882 10.1252 11.201 10.1483C11.2639 10.1705 11.2503 10.1121 11.275 10.0858C11.3568 10.0027 11.3712 10.1655 11.4506 10.1655C11.5073 10.1285 11.5871 10.1252 11.6266 10.1886C11.6809 10.1418 11.7944 10.1845 11.8108 10.0993C11.9153 9.98872 11.8577 9.81979 12.0107 9.74948C12.0641 9.77821 12.0074 9.82926 12.0275 9.8761C12.1299 9.91883 12.2467 9.78853 12.3297 9.89294C12.2545 9.67591 12.2722 9.4053 12.2792 9.16564Z" fill="#0063AC"/>
<path d="M12.3137 10.6585C12.2147 10.8242 12.0477 10.8613 11.8914 10.9081C11.8473 10.9612 11.8577 11.0783 11.7548 11.0672C11.7215 11.1417 11.6079 11.1844 11.6512 11.2913C11.5969 11.4039 11.6228 11.5512 11.5945 11.6746C11.3979 11.7979 11.453 11.5109 11.3552 11.4509L11.3198 11.5076C11.2824 11.5175 11.2553 11.494 11.2277 11.4682C11.1981 11.4558 11.147 11.4468 11.1207 11.4747C11.0776 11.5483 11.0109 11.6079 11.0278 11.7074C11.008 11.7665 10.9076 11.7469 10.9216 11.811C11.0319 11.8077 11.1503 11.7879 11.2576 11.7641C11.3353 11.7839 11.3978 11.7275 11.4747 11.7247C11.4997 11.7378 11.5327 11.7641 11.5211 11.804H11.5483C11.6005 11.7641 11.6227 11.7029 11.6005 11.6449C11.6078 11.5741 11.6844 11.5741 11.73 11.554C11.7731 11.5741 11.7464 11.617 11.7546 11.6519C11.9039 11.7074 11.7175 11.8176 11.6966 11.897C11.6571 11.9606 11.6966 12.1042 11.5708 12.084C11.5482 12.0775 11.5326 12.0536 11.5383 12.0264H11.521C11.5177 12.0807 11.558 12.153 11.6107 12.1765C11.7028 12.1 11.7065 11.9701 11.8418 11.9533C11.91 11.8805 11.8105 11.7667 11.9149 11.7074C12.0877 11.7029 12.2719 11.6306 12.4101 11.7699C12.3997 11.8299 12.3775 11.8583 12.4273 11.9073C12.3928 11.9838 12.3714 12.0668 12.3072 12.1309C12.3232 12.1737 12.3109 12.2267 12.2718 12.2567C12.2266 12.4603 11.9938 12.3628 11.8572 12.434C12.067 12.5931 12.3203 12.6527 12.5925 12.6334C12.7356 12.6269 12.6731 12.4501 12.7463 12.3707C12.7924 12.1376 13.0067 12.2967 13.137 12.2333C13.1864 12.1343 13.2365 12.0373 13.2488 11.9241C13.1666 11.8711 13.1336 11.7699 13.1595 11.6746C13.1032 11.5977 13.109 11.4575 12.9848 11.4439C12.9671 11.4176 12.9819 11.3831 12.9992 11.365C12.9968 11.2914 13.0687 11.268 13.0892 11.2112C13.0135 11.1614 13.0333 11.0512 13.039 10.9871C12.9082 11.0249 12.8959 10.8552 12.7993 10.8185C12.7758 10.7413 12.6927 10.7281 12.6265 10.7154C12.4662 10.7919 12.4402 10.5949 12.3201 10.5485C12.307 10.5118 12.2786 10.4585 12.3201 10.4288C12.3802 10.3778 12.4591 10.4218 12.529 10.4177L12.4735 10.3882C12.4205 10.3286 12.3033 10.3655 12.2338 10.3882C12.301 10.455 12.2721 10.5751 12.3137 10.6585Z" fill="#0063AC"/>
<path d="M7.17938 11.3649L7.15674 11.2342C7.22044 10.1713 7.55932 9.22574 8.15645 8.38045C8.30532 8.20984 8.41554 7.99765 8.60262 7.87019C8.38585 7.66747 8.16056 7.43065 7.9319 7.20783L7.90926 7.11742C6.95893 8.17321 6.37412 9.37867 6.20388 10.7549C6.16609 10.955 6.19157 11.161 6.15125 11.365C6.4836 11.3377 6.84586 11.3377 7.17938 11.3649Z" fill="#0063AC"/>
<path d="M16.1926 15.3451C16.0976 15.5277 15.8916 15.6436 15.7348 15.7847C15.5185 16.0014 15.1657 16.0474 15.055 16.3612C14.939 16.4664 14.8995 16.6333 14.7368 16.6929C14.6751 16.8532 14.5053 16.8434 14.4091 16.9593C14.1299 17.2093 13.9493 16.8002 13.696 16.7509L13.1868 16.8405C13.0095 16.8405 12.8332 16.9034 12.6662 16.8467C12.6908 17.1855 12.6908 17.5522 12.6662 17.8927L12.7296 17.8524C14.3359 17.7833 15.7213 17.1732 16.9107 16.0939L16.2087 15.4242L16.1926 15.3451Z" fill="#0063AC"/>
<path d="M12.6497 6.05415C12.6497 6.02458 12.6628 5.99868 12.6809 5.97605C12.7278 5.94806 12.7657 5.98921 12.7849 6.02131C12.7899 6.06857 12.81 6.1492 12.7701 6.17593C12.81 6.18172 12.8314 6.15204 12.8659 6.15204C13.6287 6.20877 14.3357 6.43117 14.969 6.79092V6.77492C15.0993 6.71125 15.265 6.6281 15.3983 6.74124C15.5587 6.68167 15.5879 6.87776 15.7183 6.90081C15.8753 6.99417 16.0522 7.16847 16.0719 7.35097C16.1006 7.41181 16.1949 7.45381 16.2084 7.51791C16.3154 7.2914 16.528 7.13057 16.7126 6.93449L16.8241 6.88723C15.8186 5.9289 14.6232 5.39885 13.2887 5.21592C13.0773 5.17929 12.8421 5.19908 12.6398 5.13571C12.6809 5.39874 12.669 5.75892 12.6497 6.05415Z" fill="#0063AC"/>
<path d="M12.6496 7.48738C12.7763 7.44339 12.9059 7.4977 13.0329 7.50096C13.686 7.60748 14.3036 7.81672 14.8243 8.22005C14.7626 8.153 14.6854 8.07743 14.6714 7.97997C14.6828 7.96681 14.6953 7.96397 14.7121 7.96681C14.7191 7.86324 14.6089 7.81019 14.5937 7.71683C14.6089 7.69789 14.6332 7.67778 14.6664 7.68726C14.7787 7.79419 14.8746 7.91092 14.9588 8.02933C15.0328 8.00017 15.0921 8.04701 15.1463 8.08606C15.2421 8.14279 15.1829 8.26699 15.2569 8.33319C15.2692 8.53012 15.5091 8.64032 15.4962 8.83599C15.4979 8.88241 15.5554 8.84588 15.5756 8.87009L15.7754 9.11554C15.7384 9.16322 15.7692 9.21995 15.8099 9.25121C15.8988 9.2931 15.9493 9.1788 16.0373 9.19574C16.1673 9.26931 16.0184 9.35573 16.0308 9.4354C16.0813 9.43824 16.1456 9.39593 16.1855 9.44572C16.2023 9.51929 16.1255 9.56581 16.0938 9.61265C16.0938 9.68538 16.155 9.66938 16.2085 9.68538C16.2677 9.68254 16.3056 9.75611 16.2887 9.80589C16.4553 9.97904 16.2382 10.1652 16.3183 10.349C16.3705 10.4678 16.3056 10.5846 16.2307 10.6751C16.2348 10.8219 16.1008 10.9111 16.0493 11.0348L15.8787 11.0677C15.7878 11.1573 15.956 11.2679 15.8647 11.3246L16.2381 11.3315L16.1974 11.2921C16.1456 11.1457 16.1575 10.9476 16.2479 10.8184C16.3055 10.6983 16.3182 10.5545 16.4248 10.4517C16.4478 10.4455 16.491 10.4019 16.5111 10.4517C16.5185 10.5648 16.5082 10.6943 16.4552 10.7946C16.5621 10.9476 16.5477 11.1478 16.5576 11.3373C16.8879 11.3172 17.2111 11.3114 17.5347 11.3143L17.5051 11.2506C17.4546 10.6351 17.3287 10.0512 17.0713 9.52582C17.0014 9.52992 16.9511 9.58539 16.8715 9.56571C16.8451 9.55624 16.8279 9.52992 16.8316 9.4995C16.6983 9.37288 16.614 9.20637 16.4659 9.09207C16.2936 9.10933 16.2176 8.9124 16.0642 8.89261C15.9285 8.83588 16.0223 8.6159 15.8249 8.67674C15.7287 8.63601 15.6344 8.56286 15.6152 8.45308C15.6152 8.27994 15.5819 8.0929 15.4264 7.97986C15.3056 7.93671 15.257 8.09617 15.1352 8.07027C15.0694 8.03617 15.0994 7.95018 15.0776 7.89387C15.055 7.84335 14.9987 7.80714 15.0086 7.74009C15.1648 7.53411 14.8186 7.5378 14.8951 7.33392C14.8746 7.1871 14.7264 7.12994 14.6492 7.01448C14.1323 6.78092 13.6162 6.6222 13.0329 6.55158C12.8899 6.53105 12.7574 6.56147 12.6341 6.49527L12.6662 6.55737C12.6591 6.86734 12.6809 7.19709 12.6496 7.48738Z" fill="#0063AC"/>
<path d="M16.2937 7.83029C16.3649 7.84671 16.385 7.92976 16.4323 7.97996C16.6741 8.10985 16.7374 8.37014 16.9513 8.51612C17.0714 8.76736 17.3477 8.95934 17.3575 9.24595C17.647 9.8861 17.8436 10.5625 17.8634 11.3152L17.8379 11.3543C17.8675 11.3543 17.8938 11.3411 17.9169 11.3251L18.8771 11.3074C18.8141 11.2145 18.8405 11.0784 18.8232 10.9649C18.6966 9.48277 18.0641 8.2131 17.0713 7.09447C16.8871 7.34118 16.6379 7.57053 16.4084 7.80703L16.2937 7.83029Z" fill="#0063AC"/>
<path d="M12.785 5.89585C12.8141 5.8428 12.8907 5.86175 12.9306 5.87859L13.4097 5.67261C13.6021 5.68861 13.8152 5.71208 13.9298 5.87238V5.89585C13.8093 5.99489 13.6563 6.07468 13.4968 6.00805C13.2764 6.05163 12.9696 6.17824 12.7924 5.95216C12.785 5.93574 12.7653 5.91185 12.785 5.89585Z" fill="white"/>
<path d="M15.6485 6.50106C15.7143 6.522 15.7756 6.55158 15.799 6.62231C15.7805 6.69672 15.8694 6.76124 15.8151 6.82092C15.6345 6.86776 15.6181 6.66515 15.4791 6.61494C15.4593 6.58779 15.4528 6.5541 15.4552 6.5179C15.5189 6.44138 15.5782 6.56842 15.6485 6.50106Z" fill="white"/>
</svg>
