<svg width="18" height="18" viewBox="0 0 18 18" fill="none" xmlns="http://www.w3.org/2000/svg">
<path d="M13.5 15.375L10.5 12.375L13.5 9.375L14.55 10.425L13.3688 11.625H16.5V13.125H13.3688L14.55 14.325L13.5 15.375ZM3 15C2.5875 15 2.2345 14.8533 1.941 14.5597C1.6475 14.2662 1.5005 13.913 1.5 13.5V11.25C1.5 10.8375 1.647 10.4845 1.941 10.191C2.235 9.8975 2.588 9.7505 3 9.75H7.5C7.9125 9.75 8.26575 9.897 8.55975 10.191C8.85375 10.485 9.0005 10.838 9 11.25V13.5C9 13.9125 8.85325 14.2657 8.55975 14.5597C8.26625 14.8538 7.913 15.0005 7.5 15H3ZM3 13.5H7.5V11.25H3V13.5ZM4.5 8.625L3.45 7.575L4.63125 6.375H1.5V4.875H4.63125L3.45 3.675L4.5 2.625L7.5 5.625L4.5 8.625ZM10.5 8.25C10.0875 8.25 9.7345 8.10325 9.441 7.80975C9.1475 7.51625 9.0005 7.163 9 6.75V4.5C9 4.0875 9.147 3.7345 9.441 3.441C9.735 3.1475 10.088 3.0005 10.5 3H15C15.4125 3 15.7657 3.147 16.0597 3.441C16.3538 3.735 16.5005 4.088 16.5 4.5V6.75C16.5 7.1625 16.3533 7.51575 16.0597 7.80975C15.7662 8.10375 15.413 8.2505 15 8.25H10.5ZM10.5 6.75H15V4.5H10.5V6.75Z" fill="white"/>
</svg>
