<svg width="18" height="18" viewBox="0 0 18 18" fill="none" xmlns="http://www.w3.org/2000/svg">
<path d="M9 5.25C9.41421 5.25 9.75 4.91421 9.75 4.5C9.75 4.08579 9.41421 3.75 9 3.75C8.58579 3.75 8.25 4.08579 8.25 4.5C8.25 4.91421 8.58579 5.25 9 5.25Z" fill="#6BB1FF"/>
<path d="M4.5 12.75H13.5V14.25H4.5V12.75ZM7.5 8.8725L9.594 10.968L12.543 8.01675L13.5 9V6H10.5L11.4825 6.95625L9.59325 8.8455L7.5 6.75L4.5 9.75L5.5605 10.8105L7.5 8.8725Z" fill="#6BB1FF"/>
<path d="M14.25 2.25005H11.7765C11.7022 2.13962 11.6221 2.03322 11.5365 1.9313L11.529 1.9223C10.9778 1.28073 10.2026 0.873559 9.3615 0.783801C9.12261 0.738733 8.87739 0.738733 8.6385 0.783801C7.79742 0.873559 7.02224 1.28073 6.471 1.9223L6.4635 1.9313C6.37792 2.03297 6.29781 2.13912 6.2235 2.2493V2.25005H3.75C3.15345 2.25065 2.5815 2.48789 2.15967 2.90972C1.73784 3.33155 1.5006 3.9035 1.5 4.50005V15.0001C1.5006 15.5966 1.73784 16.1686 2.15967 16.5904C2.5815 17.0122 3.15345 17.2495 3.75 17.2501H14.25C14.8466 17.2495 15.4185 17.0122 15.8403 16.5904C16.2622 16.1686 16.4994 15.5966 16.5 15.0001V4.50005C16.4994 3.9035 16.2622 3.33155 15.8403 2.90972C15.4185 2.48789 14.8466 2.25065 14.25 2.25005ZM15 15.0001C15 15.199 14.921 15.3897 14.7803 15.5304C14.6397 15.671 14.4489 15.7501 14.25 15.7501H3.75C3.55109 15.7501 3.36032 15.671 3.21967 15.5304C3.07902 15.3897 3 15.199 3 15.0001V4.50005C3 4.30114 3.07902 4.11037 3.21967 3.96972C3.36032 3.82907 3.55109 3.75005 3.75 3.75005H7.1625C7.24857 3.32619 7.47852 2.94512 7.8134 2.67141C8.14828 2.3977 8.56749 2.24817 9 2.24817C9.43251 2.24817 9.85172 2.3977 10.1866 2.67141C10.5215 2.94512 10.7514 3.32619 10.8375 3.75005H14.25C14.4489 3.75005 14.6397 3.82907 14.7803 3.96972C14.921 4.11037 15 4.30114 15 4.50005V15.0001Z" fill="#6BB1FF"/>
</svg>
